<svg width="23" height="32" viewBox="0 0 23 32" fill="none" xmlns="http://www.w3.org/2000/svg">
<path fill-rule="evenodd" clip-rule="evenodd" d="M1.01555 16.8341C0.454675 16.0331 0.474679 15.0514 1.06023 14.6414L19.9087 1.44358C20.4942 1.03357 21.4236 1.35055 21.9845 2.15155C22.5453 2.95256 22.5253 3.93427 21.9398 4.34428L3.09132 17.5421C2.50577 17.9521 1.57642 17.6351 1.01555 16.8341Z" fill="black"/>
<path fill-rule="evenodd" clip-rule="evenodd" d="M1.01558 15.1659C1.57645 14.3649 2.50581 14.048 3.09135 14.458L21.9398 27.6558C22.5254 28.0658 22.5454 29.0475 21.9845 29.8485C21.4236 30.6495 20.4943 30.9665 19.9087 30.5565L1.06026 17.3587C0.474716 16.9486 0.454712 15.9669 1.01558 15.1659Z" fill="black"/>
</svg>
