<svg width="68" height="68" viewBox="0 0 68 68" fill="none" xmlns="http://www.w3.org/2000/svg">
<rect x="0.5" y="0.5" width="67" height="67" rx="33.5" fill="white"/>
<rect x="0.5" y="0.5" width="67" height="67" rx="33.5" stroke="#828282"/>
<path d="M19.1923 20.5386C17.7048 20.5386 16.5 21.7434 16.5 23.2309V44.7693C16.5 46.2568 17.7048 47.4617 19.1923 47.4617H48.8077C50.2952 47.4617 51.5 46.2568 51.5 44.7693V23.2309C51.5 21.7434 50.2952 20.5386 48.8077 20.5386H19.1923ZM44.7692 24.577C46.2567 24.577 47.4615 25.7818 47.4615 27.2693C47.4615 28.7568 46.2567 29.9617 44.7692 29.9617C43.2817 29.9617 42.0769 28.7568 42.0769 27.2693C42.0769 25.7818 43.2817 24.577 44.7692 24.577ZM25.9231 29.9643C26.7567 29.9643 27.5902 30.2826 28.2263 30.9187L32.617 35.3095L34 36.6924L35.5565 38.2489C36.1246 38.817 37.0418 38.8117 37.6099 38.2437C38.1793 37.6756 38.1793 36.7518 37.6099 36.1824L36.0587 34.6338L37.0814 33.611C38.3535 32.3389 40.4157 32.3389 41.6878 33.611L47.4615 39.3847V43.4232H20.5385V34.0001L23.6199 30.9187C24.2559 30.2826 25.0895 29.9643 25.9231 29.9643Z" fill="#D9D9D9"/>
</svg>
