<svg width="40" height="34" viewBox="0 0 40 34" fill="none" xmlns="http://www.w3.org/2000/svg">
<path fill-rule="evenodd" clip-rule="evenodd" d="M0 2.4085C0 1.26251 0.905492 0.333496 2.02247 0.333496H37.9775C39.0945 0.333496 40 1.26251 40 2.4085C40 3.55449 39.0945 4.4835 37.9775 4.4835H2.02247C0.905492 4.4835 0 3.55449 0 2.4085Z" fill="black"/>
<path fill-rule="evenodd" clip-rule="evenodd" d="M0 17C0 15.8541 0.905492 14.925 2.02247 14.925H37.9775C39.0945 14.925 40 15.8541 40 17C40 18.146 39.0945 19.075 37.9775 19.075H2.02247C0.905492 19.075 0 18.146 0 17Z" fill="black"/>
<path fill-rule="evenodd" clip-rule="evenodd" d="M0 31.5914C0 30.4454 0.905492 29.5164 2.02247 29.5164H37.9775C39.0945 29.5164 40 30.4454 40 31.5914C40 32.7373 39.0945 33.6664 37.9775 33.6664H2.02247C0.905492 33.6664 0 32.7373 0 31.5914Z" fill="black"/>
</svg>
