<svg width="40" height="40" viewBox="0 0 40 40" fill="none" xmlns="http://www.w3.org/2000/svg">
<path d="M36.6667 19.9999C36.6667 10.8166 29.1833 3.33325 20 3.33325C10.8167 3.33325 3.33331 10.8166 3.33331 19.9999C3.33331 24.8333 5.41665 29.1833 8.71665 32.2333C8.71665 32.2499 8.71665 32.2499 8.69998 32.2666C8.86665 32.4333 9.06665 32.5666 9.23332 32.7166C9.33332 32.7999 9.41665 32.8833 9.51665 32.9499C9.81665 33.1999 10.15 33.4333 10.4667 33.6666C10.5833 33.7499 10.6833 33.8166 10.8 33.8999C11.1167 34.1166 11.45 34.3166 11.8 34.4999C11.9167 34.5666 12.05 34.6499 12.1667 34.7166C12.5 34.8999 12.85 35.0666 13.2167 35.2166C13.35 35.2833 13.4833 35.3499 13.6167 35.3999C13.9833 35.5499 14.35 35.6833 14.7167 35.7999C14.85 35.8499 14.9833 35.8999 15.1167 35.9333C15.5167 36.0499 15.9167 36.1499 16.3167 36.2499C16.4333 36.2833 16.55 36.3166 16.6833 36.3333C17.15 36.4333 17.6167 36.4999 18.1 36.5499C18.1667 36.5499 18.2333 36.5666 18.3 36.5833C18.8667 36.6333 19.4333 36.6666 20 36.6666C20.5667 36.6666 21.1333 36.6333 21.6833 36.5833C21.75 36.5833 21.8167 36.5666 21.8833 36.5499C22.3667 36.4999 22.8333 36.4333 23.3 36.3333C23.4167 36.3166 23.5333 36.2666 23.6667 36.2499C24.0667 36.1499 24.4833 36.0666 24.8667 35.9333C25 35.8833 25.1333 35.8333 25.2667 35.7999C25.6333 35.6666 26.0167 35.5499 26.3667 35.3999C26.5 35.3499 26.6333 35.2833 26.7667 35.2166C27.1167 35.0666 27.4667 34.8999 27.8167 34.7166C27.95 34.6499 28.0667 34.5666 28.1833 34.4999C28.5167 34.2999 28.85 34.1166 29.1833 33.8999C29.3 33.8333 29.4 33.7499 29.5167 33.6666C29.85 33.4333 30.1667 33.1999 30.4667 32.9499C30.5667 32.8666 30.65 32.7833 30.75 32.7166C30.9333 32.5666 31.1167 32.4166 31.2833 32.2666C31.2833 32.2499 31.2833 32.2499 31.2667 32.2333C34.5833 29.1833 36.6667 24.8333 36.6667 19.9999ZM28.2333 28.2833C23.7167 25.2499 16.3167 25.2499 11.7667 28.2833C11.0333 28.7666 10.4333 29.3333 9.93332 29.9499C7.39998 27.3833 5.83331 23.8666 5.83331 19.9999C5.83331 12.1833 12.1833 5.83325 20 5.83325C27.8167 5.83325 34.1667 12.1833 34.1667 19.9999C34.1667 23.8666 32.6 27.3833 30.0667 29.9499C29.5833 29.3333 28.9667 28.7666 28.2333 28.2833Z" fill="#828282"/>
<path d="M20 11.5496C16.55 11.5496 13.75 14.3496 13.75 17.7996C13.75 21.1829 16.4 23.9329 19.9167 24.0329C19.9667 24.0329 20.0333 24.0329 20.0667 24.0329C20.1 24.0329 20.15 24.0329 20.1833 24.0329C20.2 24.0329 20.2167 24.0329 20.2167 24.0329C23.5833 23.9162 26.2333 21.1829 26.25 17.7996C26.25 14.3496 23.45 11.5496 20 11.5496Z" fill="#828282"/>
</svg>
