<svg width="40" height="41" viewBox="0 0 40 41" fill="none" xmlns="http://www.w3.org/2000/svg">
<path d="M32.2904 0.714111C30.4209 0.714111 28.5516 1.42283 27.1349 2.84017L4.07785 25.8952C3.64037 26.3327 3.31997 26.8767 3.15011 27.474L0.0596937 38.2955C-0.016522 38.5633 -0.019814 38.8466 0.0501584 39.116C0.120131 39.3855 0.260827 39.6314 0.457692 39.8283C0.654558 40.0251 0.900445 40.1658 1.16992 40.2358C1.43939 40.3058 1.72267 40.3025 1.99044 40.2263L12.814 37.1358L12.8161 37.1338C13.4093 36.9633 13.952 36.6469 14.3908 36.2081L37.4458 13.151C40.2803 10.3165 40.2803 5.67468 37.4458 2.84017C36.0291 1.42283 34.1598 0.714111 32.2904 0.714111ZM32.2904 3.8208C33.3537 3.8208 34.4156 4.23052 35.2343 5.04964H35.2363C36.8768 6.69014 36.8768 9.30108 35.2363 10.9416L33.2161 12.9618L27.3241 7.06991L29.3444 5.04964C30.1631 4.23052 31.227 3.8208 32.2904 3.8208ZM25.1147 9.27938L31.0066 15.1713L12.1793 33.9986C12.1182 34.0593 12.0408 34.1057 11.9534 34.1309L3.83574 36.4502L6.15508 28.3305V28.3285C6.17896 28.2445 6.22271 28.1693 6.28732 28.1047L25.1147 9.27938Z" fill="#D9D9D9"/>
</svg>
