<svg width="40" height="40" viewBox="0 0 40 40" fill="none" xmlns="http://www.w3.org/2000/svg">
<g clip-path="url(#clip0_225_137)">
<path d="M33.2121 32.5253C33.1217 38.0667 30.1688 40.0717 27.0345 39.8859C23.9001 39.7009 21.72 38.2476 19.4939 38.2476L19.4027 38.2985C17.1765 38.2985 14.9965 39.8028 11.8621 39.9878C8.72765 40.1728 5.77487 38.2689 5.68454 32.7275C5.86625 27.6399 9.74217 27.2658 13.0435 21.2558C15.9504 15.9635 19.4028 16.3918 19.4028 16.3918H19.4939C19.4939 16.3918 22.976 15.9865 25.8533 21.2558C29.1388 27.274 33.0303 27.4375 33.2121 32.5253ZM13.8053 14.1086C16.5816 13.8981 18.593 10.5716 18.2978 6.67842C18.0026 2.78536 15.5126 -0.200038 12.7363 0.0104839C9.96002 0.221006 7.94858 3.54764 8.24377 7.4407C8.53896 11.3338 11.0289 14.3192 13.8053 14.1086ZM24.3279 14.1762C27.041 14.9158 30.0812 12.4314 31.1182 8.6272C32.155 4.82296 30.7963 1.13945 28.0833 0.399887C25.3702 -0.339679 22.33 2.14469 21.2931 5.94893C20.2561 9.75308 21.6148 13.4367 24.3279 14.1762ZM36.8975 11.1303C34.5349 10.4862 31.8874 12.6496 30.9844 15.9624C30.0815 19.2753 31.2647 22.4828 33.6273 23.1269C35.9899 23.7709 38.6374 21.6075 39.5404 18.2947C40.4435 14.982 39.2603 11.7743 36.8975 11.1303ZM9.0155 15.9621C8.11244 12.6495 5.4651 10.486 3.10243 11.13C0.73976 11.7741 -0.443562 14.9817 0.459506 18.2945C1.36258 21.6072 4.01 23.7706 6.37267 23.1266C8.73525 22.4827 9.91849 19.275 9.0155 15.9621Z" fill="#828282"/>
</g>
<defs>
<clipPath id="clip0_225_137">
<rect width="40" height="40" fill="white"/>
</clipPath>
</defs>
</svg>
