<svg width="40" height="38" viewBox="0 0 40 38" fill="none" xmlns="http://www.w3.org/2000/svg">
<path d="M33.5714 0.428467H6.42857C4.72419 0.430357 3.09015 1.10826 1.88497 2.31344C0.679792 3.51862 0.00189061 5.15266 0 6.85704V23.9999C0.00189061 25.7043 0.679792 27.3383 1.88497 28.5435C3.09015 29.7487 4.72419 30.4266 6.42857 30.4285H8.57143V36.1428C8.57135 36.4144 8.64872 36.6804 8.79446 36.9096C8.9402 37.1388 9.14826 37.3218 9.39426 37.4369C9.64026 37.5521 9.914 37.5948 10.1834 37.5599C10.4528 37.525 10.7066 37.4141 10.9152 37.2401L19.0839 30.4285H33.5714C35.2758 30.4266 36.9098 29.7487 38.115 28.5435C39.3202 27.3383 39.9981 25.7043 40 23.9999V6.85704C39.9981 5.15266 39.3202 3.51862 38.115 2.31344C36.9098 1.10826 35.2758 0.430357 33.5714 0.428467ZM11.4286 18.2856C10.8635 18.2856 10.3111 18.118 9.84123 17.8041C9.37137 17.4901 9.00517 17.0439 8.78892 16.5218C8.57267 15.9998 8.51608 15.4253 8.62633 14.8711C8.73657 14.3168 9.00869 13.8077 9.40827 13.4082C9.80785 13.0086 10.3169 12.7365 10.8712 12.6262C11.4254 12.516 11.9999 12.5726 12.522 12.7888C13.044 13.0051 13.4903 13.3713 13.8042 13.8411C14.1181 14.311 14.2857 14.8634 14.2857 15.4285C14.2857 16.1862 13.9847 16.913 13.4489 17.4488C12.9131 17.9846 12.1863 18.2856 11.4286 18.2856ZM20 18.2856C19.4349 18.2856 18.8825 18.118 18.4127 17.8041C17.9428 17.4901 17.5766 17.0439 17.3603 16.5218C17.1441 15.9998 17.0875 15.4253 17.1978 14.8711C17.308 14.3168 17.5801 13.8077 17.9797 13.4082C18.3793 13.0086 18.8884 12.7365 19.4426 12.6262C19.9968 12.516 20.5713 12.5726 21.0934 12.7888C21.6155 13.0051 22.0617 13.3713 22.3756 13.8411C22.6896 14.311 22.8571 14.8634 22.8571 15.4285C22.8571 16.1862 22.5561 16.913 22.0203 17.4488C21.4845 17.9846 20.7578 18.2856 20 18.2856ZM28.5714 18.2856C28.0063 18.2856 27.4539 18.118 26.9841 17.8041C26.5142 17.4901 26.148 17.0439 25.9318 16.5218C25.7155 15.9998 25.6589 15.4253 25.7692 14.8711C25.8794 14.3168 26.1515 13.8077 26.5511 13.4082C26.9507 13.0086 27.4598 12.7365 28.014 12.6262C28.5683 12.516 29.1427 12.5726 29.6648 12.7888C30.1869 13.0051 30.6331 13.3713 30.9471 13.8411C31.261 14.311 31.4286 14.8634 31.4286 15.4285C31.4286 16.1862 31.1276 16.913 30.5917 17.4488C30.0559 17.9846 29.3292 18.2856 28.5714 18.2856Z" fill="#828282"/>
</svg>
