<svg width="150" height="150" viewBox="0 0 150 150" fill="none" xmlns="http://www.w3.org/2000/svg">
<rect x="0.5" y="0.5" width="149" height="149" rx="19.5" fill="white"/>
<rect x="0.5" y="0.5" width="149" height="149" rx="19.5" stroke="#828282"/>
<path d="M47.5 50C44.7375 50 42.5 52.2375 42.5 55V95C42.5 97.7625 44.7375 100 47.5 100H102.5C105.263 100 107.5 97.7625 107.5 95V55C107.5 52.2375 105.263 50 102.5 50H47.5ZM95 57.5C97.7625 57.5 100 59.7375 100 62.5C100 65.2625 97.7625 67.5 95 67.5C92.2375 67.5 90 65.2625 90 62.5C90 59.7375 92.2375 57.5 95 57.5ZM60 67.5049C61.5481 67.5049 63.0961 68.0961 64.2773 69.2773L72.4316 77.4316L75 80L77.8906 82.8906C78.9456 83.9456 80.6491 83.9359 81.7041 82.8809C82.7616 81.8259 82.7616 80.1102 81.7041 79.0527L78.8232 76.1768L80.7227 74.2773C83.0852 71.9148 86.9148 71.9148 89.2773 74.2773L100 85V92.5H50V75L55.7227 69.2773C56.9039 68.0961 58.4519 67.5049 60 67.5049Z" fill="#D9D9D9"/>
</svg>
